<?xml version="1.0" encoding="UTF-8"?>
<svg id="info" xmlns="http://www.w3.org/2000/svg" xmlns:xlink="http://www.w3.org/1999/xlink" viewBox="0 0 982.63 364.78">
  <defs>
    <style>
      .cls-1 {
        fill: #386eb6;
      }

      .cls-2 {
        fill: none;
      }

      .cls-3 {
        clip-path: url(#clippath);
      }

      .cls-4 {
        fill: #164988;
      }
    </style>
    <clipPath id="clippath">
      <rect class="cls-2" y="78.77" width="982.63" height="280" rx="74.01" ry="74.01"/>
    </clipPath>
  </defs>
  <rect class="cls-1" y="78.77" width="982.63" height="280" rx="74.01" ry="74.01"/>
  <ellipse class="cls-4" cx="134.09" cy="80.49" rx="78.73" ry="80.49"/>
  <path class="cls-4" d="M98.4,153.21c1.31,4.9,2.81,9.75,4.49,14.54.84,2.39,1.73,4.77,2.67,7.12.86,2.17,1.51,5.22,4.06,5.94,2.35.67,5.21.79,7.61.35s4.23-1.72,6.1-3.05c2.09-1.48,4.17-2.97,6.2-4.54s3.75-3.21,5.71-4.71c2.15-1.65,4.56-2.94,6.94-4.23,2.63-1.43,5.26-2.85,7.89-4.27l-2.52-4.32c-4.05,2.91-8.07,5.87-12.04,8.89s-7.61,6.24-11.64,8.99c-1.89,1.29-3.83,2.04-6.1,2.37-1.76.25-3.93.62-5.66.05s-2.4-2.97-3.1-4.54c-.96-2.14-1.85-4.31-2.55-6.55-.81-2.56-1.42-5.19-1.81-7.85s-.54-5.59-1.34-8.29c-.92-3.09-5.58-1.8-4.82,1.33,1.77,7.34,6.8,13.3,9.25,20.38.64,1.84,1.24,3.81,2.29,5.47,1.32,2.09,3.65,2.29,5.64.97,3.46-2.29,6.89-4.55,10.51-6.6,4.15-2.35,8.37-4.56,12.58-6.8,2.84-1.51.32-5.83-2.52-4.32-4.07,2.17-8.15,4.31-12.17,6.57-1.97,1.11-3.93,2.25-5.85,3.45-.93.58-1.84,1.17-2.75,1.78-.52.35-1.03.7-1.55,1.06-.26.18-.51.36-.77.54-.49.25-.43.31.18.19l1.1.64c-.49-.39-.9-1.62-1.19-2.39-.45-1.19-.83-2.4-1.27-3.59-.83-2.24-1.88-4.39-3.02-6.49-2.15-3.95-4.57-7.78-5.64-12.2l-4.82,1.33c.76,2.56.9,5.21,1.28,7.84s.92,5.14,1.67,7.65,1.79,5.08,2.88,7.55,1.95,4.98,4.1,6.54c1.89,1.38,4.32,1.66,6.6,1.54,2.55-.13,5.25-.43,7.65-1.35s4.32-2.34,6.28-3.88c2.09-1.64,4.17-3.3,6.28-4.93,4.88-3.77,9.84-7.45,14.85-11.05,2.58-1.85.36-5.88-2.52-4.32-4.07,2.21-8.26,4.28-12.21,6.72s-7.08,5.62-10.71,8.3c-1.78,1.31-3.57,2.63-5.42,3.85s-3.44,1.6-5.6,1.45c-.5-.03-1-.09-1.5-.16-.19-.03-.39-.08-.58-.08-.83-.02-.14-.09,0,.23-.44-.99-.83-2.01-1.23-3.02-.85-2.14-1.65-4.29-2.42-6.46-1.75-4.93-3.3-9.93-4.65-14.98-.83-3.1-5.66-1.79-4.82,1.33h0Z"/>
  <path class="cls-4" d="M117.33,168.25c-.47-.06-1.35-.15-1.76.1-.45.28-.27-.3.17.23l.64,1.1c-.13-.33,0-1.04-.02-1.51-.04-.75-.19-1.51-.43-2.22-.46-1.32-1.16-2.51-1.98-3.63-1.86-2.52-3.89-4.93-5.85-7.37l-2.43,4.18c4.59,1.23,9.27,2.86,14.02,3.28,4.13.37,8.84-.93,12.59,1.34v-4.32c-2.77,1.63-6.1,2.33-9.14,3.28-3.21,1.01-6.42,2.21-9.17,4.2l3.76,2.16-.02.2-.64,1.1c-.3.34.47.06.79.05.67-.02,1.34,0,2,.06,1.57.13,3.09.52,4.55-.31,2.35-1.33,3.29-5.62,1.39-7.69-.87-.94-2.25-1.37-3.42-1.79-1.35-.48-2.75-.82-4.17-1.03-2.88-.42-5.75-.37-8.6.21-1.53.31-3.02.99-3.3,2.7-.32,1.94,1.13,3.14,2.77,3.74,2.78,1.02,5.88,1.45,8.84,1.35,2.41-.08,7.98-.33,6.92-4.18-.8-2.9-4.7-3.5-7.2-3.85-1.7-.24-3.51-.5-5.23-.38-1.98.14-3.76,1.72-3.27,3.85.44,1.92,2.09,2.61,3.88,2.83s3.61.4,5.42.6c1.34.15,2.5-1.26,2.5-2.5,0-1.48-1.15-2.35-2.5-2.5-.99-.11-1.97-.22-2.96-.33-.49-.05-.99-.11-1.48-.16l-.49-.05c-.87-.19-.72.07.45.79v1.33l.06-.26-.64,1.1c-.73.23-.86.33-.4.3.24,0,.47,0,.71.02.31.01.63.03.94.05.8.05,1.6.13,2.39.25.71.11,1.43.23,2.12.42.23.06.48.11.7.2l.35.18c.41.25.44.27.09.06l-.25-1.93-.06.28.64-1.1-.19.15,1.1-.64c-1.85.56-3.92.59-5.84.46-1.64-.11-4.13-.31-5.47-1.32l.9.9-.17-.26.34,1.26v-.3c-.11.42-.22.84-.34,1.26l.16-.21-.9.9c.39-.22,1.89-.36,2.64-.42,1.14-.09,2.29-.09,3.44,0,1.06.09,2.11.29,3.14.57.55.15,1.1.32,1.64.51.27.1.54.19.8.31s.82.53.17-.13c-.56-.57-.19-.25-.31.14.02-.06-.05.36-.06.29-.07.21-.05.2.05,0,.05-.14.14-.23.29-.27.27-.11.27-.15,0-.12-.09,0-.19,0-.28-.02-1.15-.27-2.45-.3-3.63-.28-2.24.04-5.57.66-5.34,3.65.13,1.7,2.09,3.36,3.76,2.16,5.49-3.96,12.57-4.09,18.31-7.48,1.63-.96,1.61-3.35,0-4.32-4.24-2.56-9.01-1.82-13.71-1.95-2.26-.06-4.42-.59-6.6-1.17-2.5-.66-5-1.34-7.51-2.01s-3.91,2.33-2.43,4.18c1.27,1.59,2.54,3.18,3.81,4.77.99,1.24,2.16,2.53,2.73,4.03.63,1.64-.22,3.36,1.1,4.82.57.63,1.26,1.01,2.09,1.18,1.05.22,2.01-.18,3.04-.05,1.34.17,2.5-1.27,2.5-2.5,0-1.49-1.15-2.33-2.5-2.5h0Z"/>
  <path class="cls-4" d="M148.39,160.81c.81-.29,1.64-.6,2.4-1.02.45-.25.86-.57,1.26-.9s.73-.78,1.03-1.21c.18-.29.28-.6.3-.93.07-.33.06-.66-.04-1-.08-.33-.23-.61-.45-.85-.18-.27-.41-.49-.7-.64-.58-.31-1.28-.46-1.93-.25l-.6.25c-.38.22-.67.52-.9.9-.05.07-.09.13-.14.19l.39-.51c-.19.24-.41.44-.64.63l.51-.39c-.43.32-.9.57-1.4.78l.6-.25c-.33.14-.67.26-1.01.39-.33.08-.61.23-.85.45-.27.18-.49.41-.64.7-.18.29-.28.6-.3.93-.07.33-.06.66.04,1,.2.6.57,1.19,1.15,1.49s1.3.48,1.93.25h0Z"/>
  <path class="cls-4" d="M97.33,150.78c.06.34.22.68.37.99.07.14.15.26.24.39.3.42.64.8.96,1.2l-.39-.51c.5.67.78,1.47,1.2,2.19.52.88,1.18,1.68,1.81,2.48.37.47,1.2.73,1.77.73.61,0,1.35-.27,1.77-.73s.76-1.1.73-1.77l-.09-.66c-.12-.42-.33-.79-.64-1.1-.13-.16-.25-.32-.38-.48l.39.51c-.56-.73-1.06-1.47-1.46-2.3-.19-.39-.37-.78-.61-1.14-.33-.5-.74-.94-1.11-1.41l.39.51c-.12-.16-.22-.32-.3-.5l.25.6c-.04-.1-.07-.21-.09-.32-.1-.58-.66-1.21-1.15-1.49-.54-.31-1.33-.45-1.93-.25s-1.19.57-1.49,1.15l-.25.6c-.12.44-.12.89,0,1.33h0Z"/>
  <path class="cls-4" d="M96.84,150.67c.26,1.44,1.34,2.43,1.89,3.72l-.25-.6c.28.69.5,1.41.86,2.06.41.75,1.03,1.4,1.77,1.84.56.33,1.3.42,1.93.25.58-.16,1.21-.61,1.49-1.15.63-1.2.31-2.71-.9-3.42-.08-.04-.15-.09-.22-.14l.51.39c-.16-.13-.29-.27-.42-.43l.39.51c-.17-.24-.31-.5-.43-.77l.25.6c-.35-.83-.61-1.71-1.09-2.48-.34-.54-.74-1.05-1.01-1.64l.25.6c-.09-.21-.16-.43-.2-.66-.1-.58-.66-1.21-1.15-1.49-.54-.31-1.33-.45-1.93-.25s-1.19.57-1.49,1.15c-.33.63-.38,1.23-.25,1.93h0Z"/>
  <circle class="cls-4" cx="42.54" cy="174.3" r="7.5"/>
  <circle class="cls-4" cx="92.72" cy="246.32" r="15.27"/>
  <circle class="cls-4" cx="193.5" cy="222.51" r="32.44"/>
  <g class="cls-3">
    <g>
      <path class="cls-4" d="M163.85,364.78c-3.2-.39-6.37-.91-9.55-1.43-1.25-26.27-19.06-49.32-45.71-63.29,30.17,11.81,51.82,36.06,55.26,64.72Z"/>
      <path class="cls-4" d="M154.3,363.35c-3.75-.61-7.5-1.24-11.28-1.68-.57-.07-1.15-.13-1.72-.19-.7-.07-1.41-.14-2.11-.19-.04,0-.07,0-.1,0-.72-.06-1.44-.1-2.16-.14-9.71-.5-19.48-.02-29.19.34-16.09.6-32.41,1.29-48.31-1.87-15.45-3.07-28.47-9.78-39.22-21.36-.45-.48-.89-.98-1.33-1.47-.98-1.11-1.93-2.24-2.84-3.4-.32-.4-.63-.8-.93-1.2-.36-.47-.72-.95-1.07-1.43-.13-.17-.25-.34-.37-.51-2.22-3.1-4.22-6.36-5.95-9.75-.6-1.18-1.16-2.36-1.7-3.56-.27-.61-.53-1.21-.78-1.82-.51-1.21-.97-2.44-1.4-3.68,17-11.91,38.99-19.1,63.03-19.1,10.53,0,20.68,1.38,30.18,3.94h.01c3.96,1.06,7.81,2.33,11.53,3.79,26.65,13.97,44.46,37.02,45.71,63.29Z"/>
      <path class="cls-4" d="M7.72,320.49c-.6-1.17-1.17-2.36-1.7-3.56.54,1.2,1.1,2.38,1.7,3.56Z"/>
      <path class="cls-4" d="M108.59,300.06c-3.72-1.46-7.57-2.73-11.53-3.79h-.01c-9.5-2.56-19.65-3.94-30.18-3.94-24.04,0-46.03,7.19-63.03,19.1-1.7-4.88-2.86-9.96-3.37-15.16-.05-.48-.15-.92-.3-1.33,14.56-5.76,31.09-9.01,48.63-9.01,6.92,0,13.67.51,20.21,1.48h.01c1.48.21,2.95.45,4.41.73.88.15,1.75.32,2.62.5,4.62.93,9.12,2.1,13.47,3.5h.01c1.92.6,3.79,1.25,5.65,1.95,4.68,1.74,9.16,3.74,13.41,5.97Z"/>
      <path class="cls-4" d="M81.81,283.81c-1.28-.32-2.56-.65-3.83-.97-1.43-.36-3.34.74-3.16,2.41.23,2.19,1.61,3.25,3.48,4.17,1.66.82,3.35,1.58,5.02,2.37,1.89.89,4.3-.58,3.67-2.82-.95-3.39-1.52-6.82-1.67-10.33-.05-1.1-.74-2.11-1.84-2.41-.98-.27-2.39.15-2.82,1.15s-.93,1.95-1.59,2.81-1.53,1.58-2.25,2.41c-.77.9-1.44,1.88-2.01,2.92-.49.89-1.21,2.02-1.39,3.02-.21,1.23.19,2.08,1.15,2.82.88.68,2.32,1.01,3.36,1.41,1.27.5,2.51.71,3.87.84,2.42.23,4.95,1.09,7.23,1.92l-1.1-.64.29.22c.89.7,1.99,1,3.03.39.88-.52,1.55-1.81,1.15-2.82-1.45-3.66-2.34-7.48-3.11-11.33-.35-1.76-.54-3.65-1.2-5.32-.73-1.85-2.57-4.56-4.87-4.03-1.7.39-2.93,1.74-4.01,3.03-1.22,1.46-2.44,2.93-3.48,4.52-1.89,2.89-3.19,6.2-5.66,8.67l1.77-.73c-4.06.02-8.11.05-12.17.07v5c3.73-.17,7.39-1.06,10.61-2.99l-1.26.34c1.18,0,2.21-.95,3.09-1.64s1.63-1.45,2.33-2.31c1.45-1.79,2.63-3.78,3.86-5.72s2.25-4.01,3.81-5.58c.82-.83,2.55-1.93,3.5-.7.47.6.62,1.49.82,2.2.35,1.25.69,2.5,1.03,3.75.66,2.42,1.33,4.84,1.99,7.26s1.33,4.62,2.56,6.68c.64,1.06,1.4,2.06,2.2,3s1.55,1.92,2.85,1.92l-1.77-.73c2.48,2.58,5.38,4.75,8.56,6.4,2.87,1.49,5.19-2.53,2.52-4.32-6.99-4.68-13.98-9.37-20.96-14.05l-3-2.01c-2.68-1.8-5.19,2.53-2.52,4.32,6.99,4.68,13.98,9.37,20.96,14.05l3,2.01,2.52-4.32c-1.61-.84-3.18-1.79-4.61-2.92-.71-.56-1.4-1.17-2.05-1.81-.79-.76-1.45-1.63-2.66-1.63l1.77.73c-1.52-1.59-2.82-3.35-3.57-5.43-.84-2.34-1.41-4.8-2.07-7.2s-1.32-4.94-2.03-7.39c-.62-2.14-1.59-4.3-3.69-5.36s-4.78-.79-6.84.39-3.39,3.11-4.62,5.02c-1.35,2.1-2.65,4.22-4.01,6.31-1.15,1.76-2.44,3.28-4.23,4.42l1.26-.34c-.9,0-1.61.57-2.38.96-.7.36-1.42.63-2.16.86-1.58.49-3.17.75-4.82.82-3.2.15-3.24,5.02,0,5,3.78-.02,7.57-.05,11.35-.07,1.13,0,1.98-.15,2.87-1.03,1.49-1.47,2.63-3.34,3.67-5.14s2-3.64,3.22-5.32c.66-.9,1.38-1.76,2.1-2.61.43-.51,1.12-1.47,1.66-1.57l-1.93-.25c.96.68,1.12,2.35,1.32,3.39.31,1.59.62,3.18.96,4.76.68,3.16,1.5,6.29,2.69,9.29l4.18-2.43c-1.12-.88-2.36-1.18-3.7-1.59s-2.71-.88-4.11-1.12c-1.18-.2-2.42-.18-3.57-.52-.99-.29-2.57-.77-3.28-1.31l1.15,2.82c.11-.65.86-1.84,1.3-2.55.47-.78,1.02-1.42,1.65-2.07,1.55-1.59,2.89-3.29,3.78-5.34l-4.66-1.26c.17,3.94.78,7.86,1.85,11.66l3.67-2.82c-1.23-.58-2.46-1.16-3.7-1.74-.64-.3-2.35-.82-2.63-1.41l.34,1.26-.03-.34-3.16,2.41c1.28.32,2.56.65,3.83.97,3.12.79,4.45-4.03,1.33-4.82Z"/>
    </g>
  </g>
</svg>